<svg xmlns="http://www.w3.org/2000/svg" xmlns:xlink="http://www.w3.org/1999/xlink" width="500" zoomAndPan="magnify" viewBox="0 0 375 374.999991" height="500" preserveAspectRatio="xMidYMid meet" version="1.0"><defs><clipPath id="9c66448f2e"><path d="M 12.101562 12.101562 L 364.28125 12.101562 L 364.28125 364.28125 L 12.101562 364.28125 Z M 12.101562 12.101562 " clip-rule="nonzero"/></clipPath><clipPath id="7cf25aa25b"><path d="M 15.101562 12.101562 L 361.28125 12.101562 C 362.9375 12.101562 364.28125 13.445312 364.28125 15.101562 L 364.28125 361.28125 C 364.28125 362.9375 362.9375 364.28125 361.28125 364.28125 L 15.101562 364.28125 C 13.445312 364.28125 12.101562 362.9375 12.101562 361.28125 L 12.101562 15.101562 C 12.101562 13.445312 13.445312 12.101562 15.101562 12.101562 Z M 15.101562 12.101562 " clip-rule="nonzero"/></clipPath><clipPath id="441ba4f018"><path d="M 12.101562 12.101562 L 364.601562 12.101562 L 364.601562 364.601562 L 12.101562 364.601562 Z M 12.101562 12.101562 " clip-rule="nonzero"/></clipPath><clipPath id="1ea2e95032"><path d="M 15.101562 12.101562 L 361.273438 12.101562 C 362.929688 12.101562 364.273438 13.445312 364.273438 15.101562 L 364.273438 361.273438 C 364.273438 362.929688 362.929688 364.273438 361.273438 364.273438 L 15.101562 364.273438 C 13.445312 364.273438 12.101562 362.929688 12.101562 361.273438 L 12.101562 15.101562 C 12.101562 13.445312 13.445312 12.101562 15.101562 12.101562 Z M 15.101562 12.101562 " clip-rule="nonzero"/></clipPath><clipPath id="26cb7004e9"><path d="M 186.203125 186.203125 L 364.28125 186.203125 L 364.28125 364.28125 L 186.203125 364.28125 Z M 186.203125 186.203125 " clip-rule="nonzero"/></clipPath><clipPath id="50c3f77b0c"><path d="M 189.203125 186.203125 L 361.28125 186.203125 C 362.9375 186.203125 364.28125 187.542969 364.28125 189.203125 L 364.28125 361.28125 C 364.28125 362.9375 362.9375 364.28125 361.28125 364.28125 L 189.203125 364.28125 C 187.542969 364.28125 186.203125 362.9375 186.203125 361.28125 L 186.203125 189.203125 C 186.203125 187.542969 187.542969 186.203125 189.203125 186.203125 Z M 189.203125 186.203125 " clip-rule="nonzero"/></clipPath><clipPath id="74f04362f5"><path d="M 12.101562 12.101562 L 189.671875 12.101562 L 189.671875 189.671875 L 12.101562 189.671875 Z M 12.101562 12.101562 " clip-rule="nonzero"/></clipPath><clipPath id="b4401e0254"><path d="M 15.101562 12.101562 L 186.671875 12.101562 C 188.328125 12.101562 189.671875 13.445312 189.671875 15.101562 L 189.671875 186.671875 C 189.671875 188.328125 188.328125 189.671875 186.671875 189.671875 L 15.101562 189.671875 C 13.445312 189.671875 12.101562 188.328125 12.101562 186.671875 L 12.101562 15.101562 C 12.101562 13.445312 13.445312 12.101562 15.101562 12.101562 Z M 15.101562 12.101562 " clip-rule="nonzero"/></clipPath><clipPath id="cd4d7056ec"><path d="M 4.328125 4.328125 L 370.328125 4.328125 L 370.328125 370.328125 L 4.328125 370.328125 Z M 4.328125 4.328125 " clip-rule="nonzero"/></clipPath><clipPath id="84a6d9d714"><path d="M 7.328125 4.328125 L 367.492188 4.328125 C 369.148438 4.328125 370.492188 5.671875 370.492188 7.328125 L 370.492188 367.492188 C 370.492188 369.148438 369.148438 370.492188 367.492188 370.492188 L 7.328125 370.492188 C 5.671875 370.492188 4.328125 369.148438 4.328125 367.492188 L 4.328125 7.328125 C 4.328125 5.671875 5.671875 4.328125 7.328125 4.328125 Z M 7.328125 4.328125 " clip-rule="nonzero"/></clipPath></defs><rect x="-37.5" width="450" fill="#ffffff" y="-37.499999" height="449.999989" fill-opacity="1"/><rect x="-37.5" width="450" fill="#ffffff" y="-37.499999" height="449.999989" fill-opacity="1"/><g clip-path="url(#9c66448f2e)"><g clip-path="url(#7cf25aa25b)"><path fill="#ffffff" d="M 12.101562 12.101562 L 364.28125 12.101562 L 364.28125 364.28125 L 12.101562 364.28125 Z M 12.101562 12.101562 " fill-opacity="1" fill-rule="nonzero"/></g></g><g clip-path="url(#441ba4f018)"><g clip-path="url(#1ea2e95032)"><path stroke-linecap="butt" transform="matrix(0.75, 0, 0, 0.75, 12.100595, 12.100591)" fill="none" stroke-linejoin="miter" d="M 4.00129 0.00129549 L 465.56385 0.00129549 C 467.772183 0.00129549 469.56385 1.792962 469.56385 4.001296 L 469.56385 465.563856 C 469.56385 467.772189 467.772183 469.563856 465.56385 469.563856 L 4.00129 469.563856 C 1.792956 469.563856 0.00128949 467.772189 0.00128949 465.563856 L 0.00128949 4.001296 C 0.00128949 1.792962 1.792956 0.00129549 4.00129 0.00129549 Z M 4.00129 0.00129549 " stroke="#ffffff" stroke-width="12" stroke-opacity="1" stroke-miterlimit="4"/></g></g><g clip-path="url(#26cb7004e9)"><g clip-path="url(#50c3f77b0c)"><path fill="#2e56a5" d="M 186.203125 186.203125 L 364.28125 186.203125 L 364.28125 364.28125 L 186.203125 364.28125 Z M 186.203125 186.203125 " fill-opacity="1" fill-rule="nonzero"/></g></g><g clip-path="url(#74f04362f5)"><g clip-path="url(#b4401e0254)"><path fill="#2e56a5" d="M 12.101562 12.101562 L 189.671875 12.101562 L 189.671875 189.671875 L 12.101562 189.671875 Z M 12.101562 12.101562 " fill-opacity="1" fill-rule="nonzero"/></g></g><g clip-path="url(#cd4d7056ec)"><g clip-path="url(#84a6d9d714)"><path stroke-linecap="butt" transform="matrix(0.75, 0, 0, 0.75, 4.328259, 4.328255)" fill="none" stroke-linejoin="miter" d="M 3.999822 -0.000172688 L 484.218634 -0.000172688 C 486.426968 -0.000172688 488.218635 1.791494 488.218635 3.999828 L 488.218635 484.21864 C 488.218635 486.426974 486.426968 488.218641 484.218634 488.218641 L 3.999822 488.218641 C 1.791488 488.218641 -0.000178688 486.426974 -0.000178688 484.21864 L -0.000178688 3.999828 C -0.000178688 1.791494 1.791488 -0.000172688 3.999822 -0.000172688 Z M 3.999822 -0.000172688 " stroke="#ffffff" stroke-width="12" stroke-opacity="1" stroke-miterlimit="4"/></g></g></svg>